<svg xmlns="http://www.w3.org/2000/svg" xmlns:xlink="http://www.w3.org/1999/xlink" width="1013.703" height="1005.059" viewBox="0 0 1013.703 1005.059">
  <defs>
    <linearGradient id="linear-gradient" x1="0.5" x2="0.5" y2="1" gradientUnits="objectBoundingBox">
      <stop offset="0" stop-color="#fcb612"/>
      <stop offset="1" stop-color="#543b00"/>
    </linearGradient>
  </defs>
  <g id="Groupe_7" data-name="Groupe 7" transform="translate(-502.496 372.428)">
    <path id="Tracé_48" data-name="Tracé 48" d="M169.822,308.917c11.513,5.334,35.693,9.708,66.938,25.038,23.806-20.312,20.831-17.247,47.782-38.245-9.1-24.993-9.1-23.459-26.33-54.121,18.72-22.995,23.184-21.462,41.039-44.457,31.245,1.533,72.906,1.533,111.591,0,22.318,18.4,25.294,23,49.1,44.457-16.367,26.062-23.806,41.392-34.221,67.327,82.808,27.7,293.105,15.095,324.162,15.839,25.489,35.26,166.839,62.855,254.123,80.925-51.575,20.256-254.123,59.239-254.123,59.239S768.276,667.038,646.934,754.4c16.4,55.3,42.519,152.659,118.089,228.916-31.857,13.976,23.143,151.127,0,161.17S664.557,1040.74,622.707,1043.171c-5.4-100.47-108.16-229.724-108.16-229.724s-55.85,10.495-116.929,18.737c4.038-61.362,13.224-123.991,13.224-123.991s124.116-17.93,160.774-54.392c47.669-47.414,56.672-129.872,51.091-179.816-25.084,1.108-175.746,12.288-175.746,12.288L463.806,573.1l-60.865,41.274,7.9,93.816s-31.618,197.2-7.9,327.887c-40.206,18.986-39.554,164.025-65.191,161.006-30.208-3.53-5.936-113.315-62.3-161.006,33.695-167.593-25.434-401.909-28.27-409.318-13.527-35.633-35.709-44.458-35.709-44.458l46.746-108.32s-34.843,22.087-73.528,50.065C146,445.482,141.535,398.341,169.822,308.917Z" transform="translate(503.457 -567)" stroke="#a87600" stroke-width="5" fill="url(#linear-gradient)"/>
    <path id="Tracé_49" data-name="Tracé 49" d="M414.316,466.559c-59.815,3.961-227.66,23.2-227.66,23.2s13.531-128.593-48.913-155.909c46.869-34.6,54.147-34.312,93.855-58.391C314.624,351.9,395.729,345.4,395.729,345.4S408.157,385.245,414.316,466.559Z" transform="translate(369.717 -199.059)" stroke="#a87600" stroke-width="5" fill="url(#linear-gradient)"/>
  </g>
</svg>
